<?xml version="1.0" encoding="UTF-8"?>
<svg version="1.1" xmlns="http://www.w3.org/2000/svg" width="512" height="512">
<path d="M0 0 C0.85638565 0.1691391 1.7127713 0.3382782 2.59510803 0.51254272 C5.40425424 1.06973681 8.21094416 1.63830436 11.01757812 2.20800781 C12.98231171 2.60233609 14.94711595 2.9963124 16.9119873 3.38995361 C21.0216737 4.21530606 25.13010137 5.04661468 29.23779297 5.88183594 C34.48719445 6.94845266 39.73992093 7.99756154 44.9937973 9.04188156 C49.04988911 9.850604 53.10377892 10.66995894 57.15711975 11.49234772 C59.09237547 11.88341669 61.02835655 12.27091461 62.96507263 12.65468597 C65.67829287 13.19371408 68.3881415 13.74737244 71.09765625 14.3046875 C71.88854141 14.45861969 72.67942657 14.61255188 73.49427795 14.77114868 C82.24899678 16.60743221 90.50960012 20.34581567 95.75195312 27.84863281 C100.04882812 34.75575898 100.04882812 34.75575898 100.04882812 38.41113281 C100.850625 38.1571875 101.65242188 37.90324219 102.47851562 37.64160156 C109.36917813 35.55565271 116.19204837 33.89610913 123.29882812 32.72363281 C124.01796387 32.60463623 124.73709961 32.48563965 125.47802734 32.36303711 C143.69194024 29.49292836 164.28265998 27.70215322 182.04882812 33.41113281 C183.1496875 33.7553125 184.25054687 34.09949219 185.38476562 34.45410156 C194.13083379 37.48445567 202.41275286 41.4372114 210.7593689 45.40969849 C229.77111006 54.43910897 248.34768539 60.37690974 268.85836792 64.92303467 C292.4879709 70.1676301 320.54780746 76.47033736 334.67382812 98.05175781 C337.33907056 102.62507153 338.12741605 106.19813409 338.04882812 111.41113281 C338.9007373 111.17515381 339.75264648 110.9391748 340.63037109 110.69604492 C357.21797079 106.13041707 373.81136971 101.84571629 390.67382812 98.41113281 C391.39262146 98.26392792 392.11141479 98.11672302 392.85198975 97.96505737 C418.33350112 92.77446041 447.17648134 90.55197 470.04882812 105.47363281 C471.39047448 106.44137772 472.72509328 107.41902838 474.04882812 108.41113281 C474.93570312 109.00925781 475.82257813 109.60738281 476.73632812 110.22363281 C483.97705598 117.07296997 488.15685534 125.62334744 488.54882812 135.53613281 C488.66186591 139.84098864 488.60376975 141.70215408 485.92382812 145.12597656 C482.89145902 147.53621559 480.04274206 149.17510988 476.54882812 150.84863281 C475.8663501 151.17951904 475.18387207 151.51040527 474.48071289 151.85131836 C472.90295492 152.61450897 471.32277339 153.37270144 469.74072266 154.12695312 C466.79554218 155.53196395 463.85738388 156.95099458 460.91992188 158.37207031 C457.37410369 160.08714345 453.82764066 161.80079179 450.27758789 163.50708008 C443.0905732 166.96325975 435.92043076 170.45115799 428.76757812 173.97753906 C407.72598843 184.33890371 386.53738428 194.22875308 365.01702881 203.55627441 C363.14779257 204.36814909 361.28109699 205.18586598 359.41455078 206.00390625 C303.13535636 230.6567893 260.21499723 239.9223375 201.04882812 220.41113281 C199.50751221 219.90888184 199.50751221 219.90888184 197.93505859 219.39648438 C168.54184046 209.76196293 140.10790618 197.6430052 111.89651489 185.0191803 C105.42519356 182.12530391 98.92823225 179.29241383 92.42382812 176.47363281 C91.45735352 176.05436523 90.49087891 175.63509766 89.49511719 175.203125 C87.34672792 174.2715937 85.19800673 173.34084117 83.04882812 172.41113281 C82.6555835 173.02166504 82.26233887 173.63219727 81.85717773 174.26123047 C81.3313208 175.06608887 80.80546387 175.87094727 80.26367188 176.70019531 C79.74667725 177.49635254 79.22968262 178.29250977 78.69702148 179.11279297 C74.16094982 185.43816383 68.30973347 189.09547945 60.79296875 190.97528076 C57.4219445 191.51070078 54.18171729 191.55417231 50.76757812 191.57226562 C49.69588379 191.57971298 49.69588379 191.57971298 48.60253906 191.58731079 C46.25129213 191.60185465 43.90011255 191.60871974 41.54882812 191.61425781 C39.90885416 191.62001367 38.2688802 191.62577135 36.62890625 191.63153076 C33.19596037 191.6420172 29.76303776 191.64787593 26.33007812 191.65136719 C21.93512695 191.65686088 17.54048417 191.6809173 13.14562988 191.70933914 C9.76040752 191.72797254 6.37525955 191.73317139 2.98999023 191.73470306 C1.36969305 191.73772623 -0.25060293 191.74574346 -1.87084961 191.75888824 C-4.13744605 191.77597126 -6.40328692 191.7740639 -8.66992188 191.76757812 C-10.60254883 191.77304657 -10.60254883 191.77304657 -12.57421875 191.77862549 C-16.23201671 191.38057023 -18.02732721 190.59210541 -20.95117188 188.41113281 C-21.75053539 187.839821 -21.75053539 187.839821 -22.56604767 187.25696754 C-24.66912312 184.45438154 -24.37150391 181.58000702 -24.34558105 178.21255493 C-24.35471771 177.1053173 -24.35471771 177.1053173 -24.36403894 175.97571123 C-24.38072586 173.49520836 -24.37588516 171.01521563 -24.37109375 168.53466797 C-24.37843085 166.75910405 -24.38701602 164.9835449 -24.39675903 163.20799255 C-24.41902297 158.37943403 -24.42190324 153.55104591 -24.42001152 148.7224431 C-24.41989203 144.69403128 -24.42844746 140.66565585 -24.43678904 136.63725412 C-24.45604112 127.13412141 -24.45890055 117.63107655 -24.45214844 108.12792969 C-24.44550771 98.31951691 -24.46836918 88.51148021 -24.50546217 78.70314372 C-24.53613736 70.28691677 -24.54752152 61.87081092 -24.54362535 53.45452917 C-24.54155539 48.42575411 -24.54707492 43.39727156 -24.57151794 38.36854935 C-24.59374622 33.63898051 -24.59194004 28.91002373 -24.57159042 24.18045235 C-24.56817328 22.44420842 -24.57329976 20.70792361 -24.58757401 18.971735 C-24.60571564 16.60166554 -24.59305809 14.23368364 -24.57263184 11.86367798 C-24.58514968 11.1760269 -24.59766753 10.48837583 -24.61056471 9.77988684 C-24.53994027 5.95951787 -24.01608054 4.48920269 -21.53733063 1.50784874 C-15.17102719 -3.65360154 -7.48926864 -1.53433092 0 0 Z " fill="#465055" transform="translate(23.951171875,214.5888671875)"/>
<path d="M0 0 C1.78809082 0.82153564 1.78809082 0.82153564 3.61230469 1.65966797 C9.13868866 4.21243934 14.65694303 6.77993058 20.13183594 9.44165039 C33.17706248 15.76232533 46.23836732 20.96950908 60.4375 24.125 C61.5109668 24.37451416 62.58443359 24.62402832 63.69042969 24.88110352 C68.33513045 25.95807002 72.9870202 26.99957043 77.64453125 28.01953125 C118.13108542 36.99031293 118.13108542 36.99031293 128.8125 50.25 C130.51735944 54.19809555 130.47798819 56.69810633 130 61 C127.50488768 65.19632527 123.47658222 66.07492337 119.01464844 67.36499023 C113.31733051 68.56508126 107.61240415 68.44034267 101.8125 68.375 C101.15227844 68.36968262 100.49205688 68.36436523 99.81182861 68.35888672 C68.10180995 68.06172137 24.82578021 62.4128901 -4 48 C-9.81345947 47.46634487 -9.81345947 47.46634487 -14.9375 49.875 C-17.5910687 52.60897987 -17.95036258 53.47384331 -18.3125 57.3125 C-17.92977742 61.82862641 -17.4328952 63.04611344 -14 66 C-5.95506838 70.0771401 3.38300666 71.66978529 12.09765625 73.78125 C16.0211629 74.73948097 19.8845499 75.82664428 23.75 77 C57.85636793 86.89284123 106.03250323 98.59284937 139.16430664 80.84033203 C145.58151394 77.46123833 151.93686383 75.34290344 158.9375 73.5 C160.03795654 73.20230713 161.13841309 72.90461426 162.2722168 72.59790039 C164.49044208 71.99955164 166.7099093 71.40578582 168.93066406 70.81689453 C171.58104769 70.1115029 174.22505731 69.38787978 176.8671875 68.65234375 C186.36278509 66.03728468 195.93900928 63.8428793 205.5625 61.75 C206.74046143 61.4914624 207.91842285 61.2329248 209.13208008 60.96655273 C229.15669175 56.69742567 252.65545175 54.75667379 271.17578125 65.23046875 C274.49301419 67.46256131 276.39730981 69.38052741 278 73 C276.78957031 73.60521484 276.78957031 73.60521484 275.5546875 74.22265625 C274.98806396 74.5060083 274.42144043 74.78936035 273.83764648 75.08129883 C272.48572479 75.75717559 271.13366592 76.432778 269.78149414 77.1081543 C265.48305262 79.25578958 261.18689185 81.40786593 256.89369202 83.56596375 C241.00979054 91.54936413 225.1031795 99.46544237 209 107 C208.34279968 107.30786438 207.68559937 107.61572876 207.00848389 107.93292236 C174.49091575 123.15698454 141.79459845 137.43849142 107.5625 148.4375 C106.83595215 148.67259277 106.1094043 148.90768555 105.36083984 149.14990234 C81.45711542 156.6229323 58.52149776 153.20077385 35 146 C33.74396973 145.6194043 32.48793945 145.23880859 31.19384766 144.84667969 C-7.83031427 132.90307581 -45.52006006 116.38370123 -82.5625 99.375 C-84.18744385 98.62911621 -84.18744385 98.62911621 -85.84521484 97.86816406 C-86.84633301 97.4037793 -87.84745117 96.93939453 -88.87890625 96.4609375 C-90.18710327 95.85451416 -90.18710327 95.85451416 -91.52172852 95.23583984 C-92.33955811 94.8280127 -93.1573877 94.42018555 -94 94 C-94.93062256 93.61924316 -95.86124512 93.23848633 -96.82006836 92.84619141 C-99 91 -99 91 -99.44702148 87.79638672 C-99.00154418 80.91546668 -97.85569188 74.07537578 -96.84765625 67.2578125 C-96.62529394 65.72386582 -96.40349699 64.18983709 -96.18223572 62.6557312 C-95.60053841 58.63118374 -95.01248577 54.60759302 -94.42266846 50.58422852 C-93.48088846 44.15375917 -92.54810073 37.72198389 -91.61669731 31.29000473 C-91.29270728 29.0597907 -90.96555949 26.83005783 -90.63795471 24.60037231 C-89.5883665 17.41347206 -88.61666801 10.23862604 -88 3 C-82.36142469 0.74841873 -76.8841902 -0.86397078 -70.9375 -2.0625 C-70.09952881 -2.23168945 -69.26155762 -2.40087891 -68.39819336 -2.57519531 C-65.93433851 -3.0625667 -63.46791766 -3.53369946 -61 -4 C-59.22496094 -4.34611328 -59.22496094 -4.34611328 -57.4140625 -4.69921875 C-38.08684394 -7.87537005 -17.97036508 -8.28594654 0 0 Z " fill="#FADF8B" transform="translate(211,273)"/>
<path d="M0 0 C16.36482015 12.88245925 27.80982908 30.09300632 30.609375 50.96484375 C32.74530706 72.6909406 27.56394471 92.40092596 13.8984375 109.52734375 C1.41458978 123.94871987 -15.58901272 134.57044213 -34.94921875 136.13671875 C-36.9689879 136.1462161 -38.9890698 136.03982953 -41.00390625 135.8984375 C-41.25398437 136.77371094 -41.5040625 137.64898437 -41.76171875 138.55078125 C-43.06092311 142.05209614 -44.63739529 144.48776352 -46.87890625 147.4609375 C-47.89597656 148.82412109 -47.89597656 148.82412109 -48.93359375 150.21484375 C-49.95839844 151.54322266 -49.95839844 151.54322266 -51.00390625 152.8984375 C-51.97263672 154.17074219 -51.97263672 154.17074219 -52.9609375 155.46875 C-63.21098368 167.65905348 -80.21601835 177.00782972 -96.00390625 178.8984375 C-119.37317561 180.68808411 -139.56792984 176.79352261 -157.87890625 161.6484375 C-171.77143823 149.5626046 -181.49440433 132.32043346 -183.30371094 113.83544922 C-183.43924777 110.74530838 -183.47204318 107.67881976 -183.44140625 104.5859375 C-183.43310791 103.49434326 -183.42480957 102.40274902 -183.41625977 101.27807617 C-182.99302724 80.95839625 -174.90049983 64.3307126 -160.921875 49.72265625 C-149.35977836 38.67538395 -132.15395922 29.82410173 -115.94140625 29.7734375 C-114.64203125 29.8146875 -113.34265625 29.8559375 -112.00390625 29.8984375 C-111.74480469 29.01542969 -111.48570312 28.13242188 -111.21875 27.22265625 C-105.3969159 11.29217131 -89.52731099 -0.54538211 -74.828125 -7.6328125 C-50.58484214 -18.22962229 -21.64404207 -15.14238574 0 0 Z " fill="#424D51" transform="translate(439.00390625,77.1015625)"/>
<path d="M0 0 C5.01581013 0.62697627 9.81415409 1.28281723 14.74804688 2.2434082 C16.02296997 2.49069168 17.29789307 2.73797516 18.6114502 2.99275208 C19.98063019 3.26168784 21.34972823 3.53104117 22.71875 3.80078125 C23.76844215 4.00705171 23.76844215 4.00705171 24.83934021 4.21748924 C28.53859258 4.94489356 32.23709594 5.67598079 35.93505859 6.40991211 C39.73233073 7.16271696 43.53210568 7.90199855 47.33260345 8.63831806 C50.27685511 9.21142017 53.21898769 9.79487872 56.16065979 10.38106346 C57.55997963 10.65802382 58.96007061 10.93111971 60.36094666 11.20009804 C67.79785688 12.63169108 74.51612914 13.97919008 81 18 C85.12066032 24.18099047 82.60642474 32.97932101 81.6105957 40.00244141 C81.46257004 41.07661819 81.31454437 42.15079498 81.16203308 43.25752258 C80.67306808 46.78980357 80.17532188 50.32076245 79.67578125 53.8515625 C79.42036088 55.6662459 79.42036088 55.6662459 79.1597805 57.51758957 C78.2592483 63.91207556 77.35177129 70.30553216 76.4387207 76.69824219 C75.68481368 81.98472465 74.94280859 87.27262336 74.21313477 92.5625 C73.32991256 98.9609938 72.42692888 105.35639472 71.50929832 111.75004196 C71.16326127 114.1835263 70.82403541 116.61798935 70.49178505 119.05339432 C70.02569398 122.45741351 69.53419402 125.856844 69.03637695 129.25634766 C68.90474152 130.26013962 68.77310608 131.26393158 68.63748169 132.29814148 C67.71956293 138.3353821 66.50949907 141.78853257 62 146 C42.39132845 152.53622385 20.66935466 147 0 147 C0 98.49 0 49.98 0 0 Z " fill="#48B1E2" transform="translate(21,237)"/>
<path d="M0 0 C0.90878906 0.46921875 1.81757813 0.9384375 2.75390625 1.421875 C14.99696349 8.20938214 22.83353393 19.09155504 27.5 32.25 C31.44443088 46.93106562 29.35025268 60.7020622 22.390625 74.09765625 C14.34749555 87.50902118 2.6677077 96.15779583 -12.44921875 100.33984375 C-26.9842957 103.04218479 -41.05706085 100.88493125 -53.58984375 92.75390625 C-61.61480507 86.91402354 -67.61071538 80.94788883 -72 72 C-72.48597656 71.10410156 -72.97195313 70.20820313 -73.47265625 69.28515625 C-78.91035163 57.75845378 -79.45765396 41.76319799 -75.375 29.6875 C-74.26953125 27.28125 -74.26953125 27.28125 -73 25 C-72.52949219 24.1234375 -72.05898438 23.246875 -71.57421875 22.34375 C-64.06996198 9.15797583 -52.93697232 -0.2054065 -38.15966797 -4.53979492 C-25.61754409 -7.21240441 -11.25160919 -6.1343063 0 0 Z " fill="#FDCD38" transform="translate(419,91)"/>
<path d="M0 0 C5.06233999 0 8.80847363 0.18254854 13.63452148 1.12988281 C14.90952011 1.37724182 16.18451874 1.62460083 17.49815369 1.87945557 C18.87256427 2.1535249 20.24687533 2.42809375 21.62109375 2.703125 C23.0491907 2.98525592 24.47733797 3.26713227 25.90553284 3.54876709 C28.89117738 4.13933987 31.87570508 4.73522072 34.85961914 5.33447266 C38.6642626 6.09777811 42.47197266 6.84435566 46.28079128 7.58650589 C49.22940436 8.16360296 52.17581447 8.75138336 55.12172127 9.34212494 C56.52387146 9.62164781 57.92675339 9.89752796 59.33038139 10.16953278 C66.77116647 11.61640194 73.50997369 12.97706426 80 17 C83.97279886 22.95919829 81.7165999 31.15031216 80.72265625 37.93359375 C80.59185165 38.85213638 80.46104706 39.77067902 80.32627869 40.71705627 C80.0507105 42.64273338 79.77239527 44.56801921 79.49145508 46.49291992 C79.06039654 49.45193929 78.6399559 52.41233417 78.22070312 55.37304688 C77.95114595 57.24748584 77.68098544 59.12183815 77.41015625 60.99609375 C77.22103416 62.32875526 77.22103416 62.32875526 77.02809143 63.68833923 C76.11535031 69.88464969 76.11535031 69.88464969 75 71 C72.65746218 71.09492722 70.34453896 71.12559791 68.00170898 71.11352539 C66.90421326 71.11374443 66.90421326 71.11374443 65.7845459 71.1139679 C63.35503216 71.11326867 60.92559417 71.10547585 58.49609375 71.09765625 C56.81600486 71.0957921 55.13591543 71.09436819 53.45582581 71.09336853 C49.02526357 71.08954307 44.5947339 71.07971256 40.16418457 71.06866455 C34.85284346 71.05665655 29.54149148 71.05204832 24.23014069 71.04621124 C16.15340444 71.03650081 8.07673973 71.01734447 0 71 C0 47.57 0 24.14 0 0 Z " fill="#4DC2F7" transform="translate(22,238)"/>
<path d="M0 0 C-0.00523682 0.57443848 -0.01047363 1.14887695 -0.01586914 1.74072266 C-0.03678576 4.36880377 -0.04970659 6.99686729 -0.0625 9.625 C-0.07506836 10.98044922 -0.07506836 10.98044922 -0.08789062 12.36328125 C-0.10501052 17.05413377 0.18905246 21.36810142 1 26 C0.67 26.66 0.34 27.32 0 28 C-0.09984643 29.51017297 -0.13831457 31.0246318 -0.14526367 32.53808594 C-0.15164352 33.47956482 -0.15802338 34.4210437 -0.16459656 35.39105225 C-0.16570938 36.41184875 -0.1668222 37.43264526 -0.16796875 38.484375 C-0.17129715 39.53272522 -0.17462555 40.58107544 -0.17805481 41.66119385 C-0.1831253 43.88382528 -0.1854631 46.10646435 -0.18530273 48.32910156 C-0.1874821 51.7221341 -0.205617 55.11483784 -0.22460938 58.5078125 C-0.22754472 60.66666555 -0.22952857 62.82552015 -0.23046875 64.984375 C-0.23765427 65.99707458 -0.24483978 67.00977417 -0.25224304 68.05316162 C-0.24165182 75.23378593 -0.24165182 75.23378593 2 82 C6.9304428 83.64348093 11.26388569 83.81264925 15.9375 81.625 C18.09702406 80.16078274 18.09702406 80.16078274 19 78 C19.2322646 75.28737884 19.41936235 72.59226874 19.5625 69.875 C19.62727539 68.74384766 19.62727539 68.74384766 19.69335938 67.58984375 C19.7994832 65.72678112 19.90025001 63.86341476 20 62 C20.67482422 62.52787109 20.67482422 62.52787109 21.36328125 63.06640625 C29.89404537 69.61406689 38.40110448 75.07568896 48.46875 78.95703125 C51 80 51 80 54 82 C45.64598551 91.58533182 38.95027001 98.3082866 27 103 C26.12859375 103.36867188 25.2571875 103.73734375 24.359375 104.1171875 C12.95815355 107.11332244 -2.61906194 106.77706313 -13 101 C-13.8765625 100.52949219 -14.753125 100.05898437 -15.65625 99.57421875 C-28.90067908 92.03658043 -38.46650174 80.729654 -42.609375 65.8046875 C-44.88973453 49.43170608 -43.3740769 34.10768652 -33.55639648 20.46655273 C-26.21657849 10.79465073 -12.78232402 0 0 0 Z " fill="#FDCE3D" transform="translate(321,129)"/>
<path d="M0 0 C2.87029869 1.79393668 4.49131638 2.98263276 6 6 C6.11036536 7.60707758 6.15911485 9.21858225 6.17700195 10.8293457 C6.18983719 11.83411453 6.20267242 12.83888336 6.21589661 13.87409973 C6.22328354 14.96365463 6.23067047 16.05320953 6.23828125 17.17578125 C6.246353 18.29309128 6.25442474 19.41040131 6.26274109 20.56156921 C6.27658946 22.92962081 6.28730823 25.29769243 6.29516602 27.66577148 C6.31238037 31.28733138 6.35626128 34.907979 6.40039062 38.52929688 C6.41051715 40.82811828 6.41903338 43.12694745 6.42578125 45.42578125 C6.44328934 46.50926346 6.46079742 47.59274567 6.47883606 48.70906067 C6.45708257 56.25048257 6.45708257 56.25048257 4.08666992 60.13745117 C0.68642822 63.17248615 -0.77570269 64.02225995 -5.4375 63.9375 C-9.64827101 62.82940237 -11.25210722 61.31363542 -14 58 C-15.20502592 55.58994816 -15.13953146 54.04637219 -15.16113281 51.35424805 C-15.17074036 50.38952072 -15.1803479 49.4247934 -15.19024658 48.43083191 C-15.19449646 47.38502457 -15.19874634 46.33921722 -15.203125 45.26171875 C-15.21167511 43.65234184 -15.21167511 43.65234184 -15.22039795 42.01045227 C-15.22985683 39.73655181 -15.23638544 37.46263758 -15.24023438 35.1887207 C-15.24993122 31.71215825 -15.28094322 28.23618902 -15.3125 24.75976562 C-15.31903079 22.55208685 -15.32428097 20.34440384 -15.328125 18.13671875 C-15.3404718 17.0969841 -15.3528186 16.05724945 -15.36553955 14.98600769 C-15.33743156 5.86189906 -15.33743156 5.86189906 -12 2 C-7.98141405 -0.6790573 -4.72358279 -0.69610694 0 0 Z " fill="#414B50" transform="translate(399,107)"/>
<path d="M0 0 C-0.00523682 0.57443848 -0.01047363 1.14887695 -0.01586914 1.74072266 C-0.03678576 4.36880377 -0.04970659 6.99686729 -0.0625 9.625 C-0.07087891 10.52863281 -0.07925781 11.43226563 -0.08789062 12.36328125 C-0.10501052 17.05413377 0.18905246 21.36810142 1 26 C0.67 26.66 0.34 27.32 0 28 C-0.15745826 31.0604194 -0.25866877 34.101419 -0.31640625 37.1640625 C-0.33718735 38.07127045 -0.35796844 38.97847839 -0.37937927 39.91317749 C-0.44487135 42.8170398 -0.50375814 45.72099405 -0.5625 48.625 C-0.60568555 50.59115542 -0.64929985 52.55730147 -0.69335938 54.5234375 C-0.80055239 59.34886362 -0.90182081 64.1743824 -1 69 C-16.29861353 54.2081605 -21.57608028 30.42588289 -23 10 C-16.33933117 5.06617124 -8.55729349 0 0 0 Z " fill="#E7BC3A" transform="translate(321,129)"/>
<path d="M0 0 C0.44988281 0.35191406 0.89976562 0.70382813 1.36328125 1.06640625 C9.89404537 7.61406689 18.40110448 13.07568896 28.46875 16.95703125 C31 18 31 18 34 20 C20.89693593 35.03435469 20.89693593 35.03435469 15 37 C15 36.34 15 35.68 15 35 C13.70449219 34.62488281 13.70449219 34.62488281 12.3828125 34.2421875 C8.79588948 32.92504948 6.03353273 31.26569354 2.875 29.125 C1.86179687 28.44695312 0.84859375 27.76890625 -0.1953125 27.0703125 C-2.72221664 25.205049 -4.85668318 23.28688828 -7 21 C-6.195625 20.54625 -5.39125 20.0925 -4.5625 19.625 C-1.91143428 18.25274335 -1.91143428 18.25274335 -1 16 C-0.7677354 13.28737884 -0.58063765 10.59226874 -0.4375 7.875 C-0.37272461 6.74384766 -0.37272461 6.74384766 -0.30664062 5.58984375 C-0.2005168 3.72678112 -0.09974999 1.86341476 0 0 Z " fill="#E5BA35" transform="translate(341,191)"/>
</svg>
